# xmcd
#
# Track frame offsets: 
#        150
#        10375
#        24425
#        40715
#        56747
#        60537
#        78342
#        95615
#        113462
#        133370
#        151667
#        171552
#        189650
#        204577
#        221790
#        240710
#        254005
#        272097
#        290400
#        308910
#        337330
#
# Disc length: 4795 seconds
#
# Revision: 1
# Processed by: cddbd v1.5.2PL0 Copyright (c) Steve Scherf et al.
# Submitted via: ExactAudioCopy v1.3
#
DISCID=3d12b915
DTITLE=Chingy - Powerballin' (Special Edition)
DYEAR=2004
DGENRE=Hip-Hop
TTITLE0=Haters 101 (Intro)
TTITLE1=Give Em Some Mo
TTITLE2=Chingy ft. G.I.B. - Fall-N
TTITLE3=Balla Baby
TTITLE4=Jackpot The Pimp Pt. 2 (Skit)
TTITLE5=Chingy ft. R. Kelly - Leave Wit Me
TTITLE6=Chingy ft. Ziggy - Make That Ass Talk
TTITLE7=I Do
TTITLE8=Chingy ft. Janet Jackson - Don't Worry
TTITLE9=Chingy ft. David Banner and Nate Dogg - All The Way To St. Lou
TTITLE10=Chingy ft. Lil' Wayne - 26's
TTITLE11=We Clubbin'
TTITLE12=Chingy ft. Bun B - We Do
TTITLE13=Chingy ft. G.I.B. - Wurr Da Git It Gurlz At
TTITLE14=Chingy ft. G.I.B. - Bring Da Beef
TTITLE15=(Outro)
TTITLE16=Chingy ft. G.I.B. - Bella Baby Remix
TTITLE17=Chingy ft. G.I.B. - What Up Wit It
TTITLE18=Don't Really Care
TTITLE19=Chingy ft. OG - That Thing
TTITLE20=Copy Control CD
EXTD=YEAR: 2004
EXTT0=
EXTT1=
EXTT2=
EXTT3=
EXTT4=
EXTT5=
EXTT6=
EXTT7=
EXTT8=
EXTT9=
EXTT10=
EXTT11=
EXTT12=
EXTT13=
EXTT14=
EXTT15=
EXTT16=
EXTT17=
EXTT18=
EXTT19=
EXTT20=
PLAYORDER=
